{
  "accessors": [
    {
      "bufferView": 2,
      "componentType": 5126,
      "count": 366,
      "max": [
        9.730245590209961,
        9.859651565551758,
        10.105140686035156
      ],
      "min": [
        -9.706558227539063,
        -9.859649658203125,
        -4.963451385498047
      ],
      "type": "VEC3"
    },
    {
      "bufferView": 2,
      "byteOffset": 4392,
      "componentType": 5126,
      "count": 366,
      "max": [
        0.99860018491745,
        0.9999996423721313,
        1.0
      ],
      "min": [
        -0.9998757839202881,
        -0.9999996423721313,
        -0.0973120927810669
      ],
      "type": "VEC3"
    },
    {
      "bufferView": 3,
      "componentType": 5126,
      "count": 366,
      "max": [
        0.9721269011497498,
        0.9282389879226685,
        0.9996961951255798,
        1.0
      ],
      "min": [
        -0.773009717464447,
        -0.9487422108650208,
        -0.8082413673400879,
        1.0
      ],
      "type": "VEC4"
    },
    {
      "bufferView": 1,
      "componentType": 5126,
      "count": 366,
      "max": [
        0.9999988079071045,
        0.8414096832275391
      ],
      "min": [
        0.0,
        2.9802322387695313e-08
      ],
      "type": "VEC2"
    },
    {
      "bufferView": 1,
      "byteOffset": 2928,
      "componentType": 5126,
      "count": 366,
      "max": [
        0.9999988079071045,
        0.8414096832275391
      ],
      "min": [
        0.0,
        2.9802322387695313e-08
      ],
      "type": "VEC2"
    },
    {
      "bufferView": 1,
      "byteOffset": 5856,
      "componentType": 5126,
      "count": 366,
      "max": [
        0.9999988079071045,
        0.8414096832275391
      ],
      "min": [
        0.0,
        2.9802322387695313e-08
      ],
      "type": "VEC2"
    },
    {
      "bufferView": 1,
      "byteOffset": 8784,
      "componentType": 5126,
      "count": 366,
      "max": [
        0.9999988079071045,
        0.8414096832275391
      ],
      "min": [
        0.0,
        2.9802322387695313e-08
      ],
      "type": "VEC2"
    },
    {
      "bufferView": 1,
      "byteOffset": 11712,
      "componentType": 5126,
      "count": 366,
      "max": [
        0.9999988079071045,
        0.8414096832275391
      ],
      "min": [
        0.0,
        2.9802322387695313e-08
      ],
      "type": "VEC2"
    },
    {
      "bufferView": 1,
      "byteOffset": 14640,
      "componentType": 5126,
      "count": 366,
      "max": [
        0.9999988079071045,
        0.8414096832275391
      ],
      "min": [
        0.0,
        2.9802322387695313e-08
      ],
      "type": "VEC2"
    },
    {
      "bufferView": 1,
      "byteOffset": 17568,
      "componentType": 5126,
      "count": 366,
      "max": [
        0.9999988079071045,
        0.8414096832275391
      ],
      "min": [
        0.0,
        2.9802322387695313e-08
      ],
      "type": "VEC2"
    },
    {
      "bufferView": 1,
      "byteOffset": 20496,
      "componentType": 5126,
      "count": 366,
      "max": [
        0.9999988079071045,
        0.8414096832275391
      ],
      "min": [
        0.0,
        2.9802322387695313e-08
      ],
      "type": "VEC2"
    },
    {
      "bufferView": 1,
      "byteOffset": 23424,
      "componentType": 5126,
      "count": 366,
      "max": [
        0.9999988079071045,
        0.8414096832275391
      ],
      "min": [
        0.0,
        2.9802322387695313e-08
      ],
      "type": "VEC2"
    },
    {
      "bufferView": 1,
      "byteOffset": 26352,
      "componentType": 5126,
      "count": 366,
      "max": [
        0.9999988079071045,
        0.8414096832275391
      ],
      "min": [
        0.0,
        2.9802322387695313e-08
      ],
      "type": "VEC2"
    },
    {
      "bufferView": 0,
      "componentType": 5125,
      "count": 2052,
      "type": "SCALAR"
    },
    {
      "bufferView": 2,
      "byteOffset": 8784,
      "componentType": 5126,
      "count": 4272,
      "max": [
        14.295523643493652,
        27.271589279174805,
        16.534807205200195
      ],
      "min": [
        -14.026747703552246,
        -16.442705154418945,
        -10.159509658813477
      ],
      "type": "VEC3"
    },
    {
      "bufferView": 2,
      "byteOffset": 60048,
      "componentType": 5126,
      "count": 4272,
      "max": [
        0.9999181032180786,
        1.0,
        1.0
      ],
      "min": [
        -0.9999986290931702,
        -0.9998878836631775,
        -1.0
      ],
      "type": "VEC3"
    },
    {
      "bufferView": 1,
      "byteOffset": 29280,
      "componentType": 5126,
      "count": 4272,
      "max": [
        0.9999988079071045,
        0.8733233213424683
      ],
      "min": [
        0.0,
        3.725290298461914e-09
      ],
      "type": "VEC2"
    },
    {
      "bufferView": 1,
      "byteOffset": 63456,
      "componentType": 5126,
      "count": 4272,
      "max": [
        0.9999988079071045,
        0.8733233213424683
      ],
      "min": [
        0.0,
        3.725290298461914e-09
      ],
      "type": "VEC2"
    },
    {
      "bufferView": 1,
      "byteOffset": 97632,
      "componentType": 5126,
      "count": 4272,
      "max": [
        0.9999988079071045,
        0.8733233213424683
      ],
      "min": [
        0.0,
        3.725290298461914e-09
      ],
      "type": "VEC2"
    },
    {
      "bufferView": 1,
      "byteOffset": 131808,
      "componentType": 5126,
      "count": 4272,
      "max": [
        0.9999988079071045,
        0.8733233213424683
      ],
      "min": [
        0.0,
        3.725290298461914e-09
      ],
      "type": "VEC2"
    },
    {
      "bufferView": 1,
      "byteOffset": 165984,
      "componentType": 5126,
      "count": 4272,
      "max": [
        0.9999988079071045,
        0.8733233213424683
      ],
      "min": [
        0.0,
        3.725290298461914e-09
      ],
      "type": "VEC2"
    },
    {
      "bufferView": 1,
      "byteOffset": 200160,
      "componentType": 5126,
      "count": 4272,
      "max": [
        0.9999988079071045,
        0.8733233213424683
      ],
      "min": [
        0.0,
        3.725290298461914e-09
      ],
      "type": "VEC2"
    },
    {
      "bufferView": 1,
      "byteOffset": 234336,
      "componentType": 5126,
      "count": 4272,
      "max": [
        0.9999988079071045,
        0.8733233213424683
      ],
      "min": [
        0.0,
        3.725290298461914e-09
      ],
      "type": "VEC2"
    },
    {
      "bufferView": 1,
      "byteOffset": 268512,
      "componentType": 5126,
      "count": 4272,
      "max": [
        0.9999988079071045,
        0.8733233213424683
      ],
      "min": [
        0.0,
        3.725290298461914e-09
      ],
      "type": "VEC2"
    },
    {
      "bufferView": 1,
      "byteOffset": 302688,
      "componentType": 5126,
      "count": 4272,
      "max": [
        0.9999988079071045,
        0.8733233213424683
      ],
      "min": [
        0.0,
        3.725290298461914e-09
      ],
      "type": "VEC2"
    },
    {
      "bufferView": 1,
      "byteOffset": 336864,
      "componentType": 5126,
      "count": 4272,
      "max": [
        0.9999988079071045,
        0.8733233213424683
      ],
      "min": [
        0.0,
        3.725290298461914e-09
      ],
      "type": "VEC2"
    },
    {
      "bufferView": 0,
      "byteOffset": 8208,
      "componentType": 5125,
      "count": 18690,
      "type": "SCALAR"
    }
  ],
  "asset": {
    "extras": {
      "author": "mau54live (https://sketchfab.com/mau54live)",
      "license": "CC-BY-4.0 (http://creativecommons.org/licenses/by/4.0/)",
      "source": "https://sketchfab.com/3d-models/shlem-69d643c0a25a40bbb4dd3e4a3b23c261",
      "title": "shlem_"
    },
    "generator": "Sketchfab-14.41.0",
    "version": "2.0"
  },
  "bufferViews": [
    {
      "buffer": 0,
      "byteLength": 82968,
      "name": "floatBufferViews",
      "target": 34963
    },
    {
      "buffer": 0,
      "byteLength": 371040,
      "byteOffset": 82968,
      "byteStride": 8,
      "name": "floatBufferViews",
      "target": 34962
    },
    {
      "buffer": 0,
      "byteLength": 111312,
      "byteOffset": 454008,
      "byteStride": 12,
      "name": "floatBufferViews",
      "target": 34962
    },
    {
      "buffer": 0,
      "byteLength": 5856,
      "byteOffset": 565320,
      "byteStride": 16,
      "name": "floatBufferViews",
      "target": 34962
    }
  ],
  "buffers": [
    {
      "byteLength": 571176,
      "uri": "scene.bin"
    }
  ],
  "extensionsUsed": [
    "KHR_materials_clearcoat"
  ],
  "images": [
    {
      "uri": "textures/02_-_Default_baseColor.png"
    },
    {
      "uri": "textures/02_-_Default_metallicRoughness.png"
    },
    {
      "uri": "textures/02_-_Default_normal.png"
    },
    {
      "uri": "textures/01_-_Default_baseColor.png"
    },
    {
      "uri": "textures/01_-_Default_metallicRoughness.png"
    }
  ],
  "materials": [
    {
      "doubleSided": true,
      "extensions": {
        "KHR_materials_clearcoat": {
          "clearcoatFactor": 1.0,
          "clearcoatRoughnessFactor": 0.04
        }
      },
      "name": "02_-_Default",
      "normalTexture": {
        "index": 2
      },
      "pbrMetallicRoughness": {
        "baseColorTexture": {
          "index": 0
        },
        "metallicFactor": 0.0,
        "metallicRoughnessTexture": {
          "index": 1
        }
      }
    },
    {
      "doubleSided": true,
      "name": "01_-_Default",
      "pbrMetallicRoughness": {
        "baseColorTexture": {
          "index": 3
        },
        "metallicFactor": 0.0,
        "metallicRoughnessTexture": {
          "index": 4
        }
      }
    }
  ],
  "meshes": [
    {
      "name": "Sphere003_02 - Default_0",
      "primitives": [
        {
          "attributes": {
            "NORMAL": 1,
            "POSITION": 0,
            "TANGENT": 2,
            "TEXCOORD_0": 3,
            "TEXCOORD_1": 4,
            "TEXCOORD_2": 5,
            "TEXCOORD_3": 6,
            "TEXCOORD_4": 7,
            "TEXCOORD_5": 8,
            "TEXCOORD_6": 9,
            "TEXCOORD_7": 10,
            "TEXCOORD_8": 11,
            "TEXCOORD_9": 12
          },
          "indices": 13,
          "material": 0,
          "mode": 4
        }
      ]
    },
    {
      "name": "Cylinder003_01 - Default_0",
      "primitives": [
        {
          "attributes": {
            "NORMAL": 15,
            "POSITION": 14,
            "TEXCOORD_0": 16,
            "TEXCOORD_1": 17,
            "TEXCOORD_2": 18,
            "TEXCOORD_3": 19,
            "TEXCOORD_4": 20,
            "TEXCOORD_5": 21,
            "TEXCOORD_6": 22,
            "TEXCOORD_7": 23,
            "TEXCOORD_8": 24,
            "TEXCOORD_9": 25
          },
          "indices": 26,
          "material": 1,
          "mode": 4
        }
      ]
    }
  ],
  "nodes": [
    {
      "children": [
        1
      ],
      "matrix": [
        1.0,
        0.0,
        0.0,
        0.0,
        0.0,
        2.220446049250313e-16,
        -1.0,
        0.0,
        0.0,
        1.0,
        2.220446049250313e-16,
        0.0,
        0.0,
        0.0,
        0.0,
        1.0
      ],
      "name": "Sketchfab_model"
    },
    {
      "children": [
        2
      ],
      "matrix": [
        0.009999999776482582,
        0.0,
        0.0,
        0.0,
        0.0,
        0.0,
        0.009999999776482582,
        0.0,
        0.0,
        -0.009999999776482582,
        0.0,
        0.0,
        0.0,
        0.0,
        0.0,
        1.0
      ],
      "name": "shlem_fbx_sp.fbx"
    },
    {
      "children": [
        3,
        5
      ],
      "name": "RootNode"
    },
    {
      "children": [
        4
      ],
      "matrix": [
        22.406635284423828,
        0.0,
        0.0,
        0.0,
        0.0,
        16.43873441248935,
        -2.390408959486503,
        0.0,
        0.0,
        1.2948431526438715,
        8.904577857972672,
        0.0,
        0.18869972229003906,
        291.392578125,
        199.66978454589844,
        1.0
      ],
      "name": "Sphere003"
    },
    {
      "mesh": 0,
      "name": "Sphere003_02 - Default_0"
    },
    {
      "children": [
        6
      ],
      "matrix": [
        22.773513793945313,
        0.0,
        0.0,
        0.0,
        0.0,
        3.112053046562687e-15,
        -14.015440940856934,
        0.0,
        0.0,
        21.632671356201172,
        4.8034179647607304e-15,
        0.0,
        0.0,
        219.94732666015625,
        81.98760986328125,
        1.0
      ],
      "name": "Cylinder003"
    },
    {
      "mesh": 1,
      "name": "Cylinder003_01 - Default_0"
    }
  ],
  "samplers": [
    {
      "magFilter": 9729,
      "minFilter": 9987,
      "wrapS": 10497,
      "wrapT": 10497
    }
  ],
  "scene": 0,
  "scenes": [
    {
      "name": "Sketchfab_Scene",
      "nodes": [
        0
      ]
    }
  ],
  "textures": [
    {
      "sampler": 0,
      "source": 0
    },
    {
      "sampler": 0,
      "source": 1
    },
    {
      "sampler": 0,
      "source": 2
    },
    {
      "sampler": 0,
      "source": 3
    },
    {
      "sampler": 0,
      "source": 4
    }
  ]
}
